<svg width="12" height="12" viewBox="0 0 12 12" fill="none" xmlns="http://www.w3.org/2000/svg">
<path d="M9.14999 2.85499C9.10373 2.80864 9.04879 2.77186 8.9883 2.74677C8.92782 2.72168 8.86297 2.70877 8.79749 2.70877C8.73201 2.70877 8.66716 2.72168 8.60668 2.74677C8.54619 2.77186 8.49125 2.80864 8.44499 2.85499L5.99999 5.29499L3.55499 2.84999C3.5087 2.8037 3.45374 2.76698 3.39326 2.74193C3.33278 2.71687 3.26796 2.70398 3.20249 2.70398C3.13702 2.70398 3.0722 2.71687 3.01172 2.74193C2.95124 2.76698 2.89628 2.8037 2.84999 2.84999C2.8037 2.89628 2.76698 2.95124 2.74193 3.01172C2.71687 3.0722 2.70398 3.13702 2.70398 3.20249C2.70398 3.26796 2.71687 3.33278 2.74193 3.39326C2.76698 3.45374 2.8037 3.5087 2.84999 3.55499L5.29499 5.99999L2.84999 8.44499C2.8037 8.49128 2.76698 8.54624 2.74193 8.60672C2.71687 8.6672 2.70398 8.73202 2.70398 8.79749C2.70398 8.86296 2.71687 8.92778 2.74193 8.98826C2.76698 9.04874 2.8037 9.1037 2.84999 9.14999C2.89628 9.19628 2.95124 9.233 3.01172 9.25805C3.0722 9.28311 3.13702 9.296 3.20249 9.296C3.26796 9.296 3.33278 9.28311 3.39326 9.25805C3.45374 9.233 3.5087 9.19628 3.55499 9.14999L5.99999 6.70499L8.44499 9.14999C8.49128 9.19628 8.54624 9.233 8.60672 9.25805C8.6672 9.28311 8.73202 9.296 8.79749 9.296C8.86296 9.296 8.92778 9.28311 8.98826 9.25805C9.04874 9.233 9.1037 9.19628 9.14999 9.14999C9.19628 9.1037 9.233 9.04874 9.25805 8.98826C9.28311 8.92778 9.296 8.86296 9.296 8.79749C9.296 8.73202 9.28311 8.6672 9.25805 8.60672C9.233 8.54624 9.19628 8.49128 9.14999 8.44499L6.70499 5.99999L9.14999 3.55499C9.33999 3.36499 9.33999 3.04499 9.14999 2.85499Z" fill="#222222"/>
</svg>
