<svg width="16" height="16" viewBox="0 0 16 16" fill="none" xmlns="http://www.w3.org/2000/svg">
<path d="M8.87606 8.04733L5.57606 4.74733C5.45462 4.6216 5.38742 4.45319 5.38894 4.2784C5.39046 4.1036 5.46057 3.93639 5.58418 3.81279C5.70778 3.68918 5.87499 3.61907 6.04979 3.61755C6.22459 3.61603 6.39299 3.68323 6.51872 3.80466L10.2901 7.576C10.415 7.70102 10.4852 7.87056 10.4852 8.04733C10.4852 8.22411 10.415 8.39365 10.2901 8.51866L6.51872 12.29C6.39299 12.4114 6.22459 12.4786 6.04979 12.4771C5.87499 12.4756 5.70778 12.4055 5.58418 12.2819C5.46057 12.1583 5.39046 11.9911 5.38894 11.8163C5.38742 11.6415 5.45462 11.4731 5.57606 11.3473L8.87606 8.04733Z" fill="#515151"/>
</svg>
