<svg width="14" height="16" viewBox="0 0 14 16" fill="none" xmlns="http://www.w3.org/2000/svg">
<path d="M11.2128 1.20294C9.45849 -0.0743573 8.20991 -0.0465698 7.73567 0.0303089C7.67064 0.0415589 7.60851 0.0656108 7.55285 0.101069C7.4972 0.136526 7.44915 0.182684 7.41148 0.236862L3.13221 6.14078L1.03611 9.03345C0.779753 9.3873 0.631146 9.80771 0.608179 10.2441L0.334009 15.4533C0.329335 15.5397 0.346354 15.6259 0.383515 15.704C0.420675 15.7822 0.476797 15.8498 0.546769 15.9007C0.61674 15.9516 0.698338 15.9842 0.784129 15.9955C0.869921 16.0069 0.95718 15.9965 1.03796 15.9655L5.90632 14.1037C6.31665 13.9463 6.67326 13.673 6.93076 13.3174L8.63876 10.96L13.3034 4.52354C13.3441 4.46771 13.3733 4.40428 13.3892 4.337C13.4051 4.26971 13.4074 4.19992 13.396 4.13174C13.3182 3.64453 12.9449 2.46264 11.2128 1.20294ZM5.92114 13.0626L4.02882 13.7934C3.9931 13.8075 3.95377 13.8095 3.91681 13.7991C3.87986 13.7888 3.84731 13.7666 3.82412 13.736C3.54022 13.3714 3.2048 13.05 2.8284 12.782C2.45726 12.5071 2.04864 12.2869 1.61501 12.1281C1.57899 12.1149 1.54817 12.0905 1.52714 12.0585C1.50611 12.0265 1.49599 11.9885 1.4983 11.9502L1.61131 9.92543L2.11982 9.22611C2.11982 9.22611 3.25818 9.06958 4.74388 10.1505C6.22773 11.2305 6.43058 12.3624 6.43058 12.3624L5.92114 13.0626Z" fill="black"/>
</svg>
