<svg width="16" height="16" viewBox="0 0 16 16" fill="none" xmlns="http://www.w3.org/2000/svg">
<path d="M7.17133 8L10.4713 11.3C10.535 11.3615 10.5858 11.4351 10.6207 11.5164C10.6557 11.5977 10.6741 11.6852 10.6748 11.7737C10.6756 11.8622 10.6587 11.95 10.6252 12.032C10.5917 12.1139 10.5422 12.1883 10.4796 12.2509C10.417 12.3135 10.3426 12.363 10.2606 12.3965C10.1787 12.4301 10.0909 12.4469 10.0024 12.4462C9.91387 12.4454 9.82639 12.427 9.74506 12.3921C9.66372 12.3571 9.59016 12.3063 9.52866 12.2427L5.75732 8.47133C5.63234 8.34631 5.56213 8.17677 5.56213 8C5.56213 7.82322 5.63234 7.65368 5.75732 7.52866L9.52866 3.75733C9.65439 3.63589 9.82279 3.5687 9.99759 3.57022C10.1724 3.57173 10.3396 3.64185 10.4632 3.76545C10.5868 3.88906 10.6569 4.05627 10.6584 4.23106C10.66 4.40586 10.5928 4.57426 10.4713 4.7L7.17133 8Z" fill="#515151"/>
</svg>
