<svg width="232" height="72" viewBox="0 0 232 72" fill="none" xmlns="http://www.w3.org/2000/svg">
<path d="M22.64 48.8647C17.0545 48.8647 12.881 47.2977 10.1193 44.1636C7.37309 41.0141 6 36.5147 6 30.6655C6 27.3142 6.42667 24.3973 7.28 21.9149C8.14885 19.4325 9.36679 17.3845 10.9338 15.7709C12.5008 14.1573 14.3937 12.9627 16.6124 12.1869C18.8465 11.3956 21.3135 11 24.0131 11C25.8594 11 27.791 11.1707 29.808 11.512C31.8405 11.8533 33.6945 12.3343 35.3702 12.9549C35.4788 14.4909 35.4943 16.1433 35.4167 17.912C35.3391 19.6807 35.153 21.5348 34.8582 23.4742H29.6684L28.2953 17.3767C28.2332 17.0819 28.1168 16.7716 27.9462 16.4458C27.7755 16.1045 27.4807 15.7942 27.0618 15.5149C26.6274 15.2201 26.0766 14.9796 25.4095 14.7935C24.7423 14.6073 24.0441 14.5142 23.3149 14.5142C20.9876 14.5142 19.1724 15.6856 17.8691 18.0284C16.5658 20.3712 15.9142 24.281 15.9142 29.7578C15.9142 34.8313 16.527 38.6868 17.7527 41.3244C18.9784 43.9619 20.9023 45.2807 23.5244 45.2807C24.2846 45.2807 25.0293 45.1721 25.7585 44.9549C26.5033 44.7222 27.1161 44.3731 27.5971 43.9076C27.7988 43.7215 27.9772 43.4965 28.1324 43.2327C28.303 42.9535 28.4659 42.5733 28.6211 42.0924L30.2735 36.6931L35.3702 37.1353C35.4478 38.5627 35.4633 40.1064 35.4167 41.7665C35.3857 43.4112 35.2461 45.1101 34.9978 46.8633C34.16 47.1425 33.2368 47.4063 32.2284 47.6545C31.2199 47.9028 30.1804 48.1122 29.1098 48.2829C28.0393 48.4691 26.9455 48.6087 25.8284 48.7018C24.7268 48.8104 23.664 48.8647 22.64 48.8647Z" fill="black"/>
<path d="M78.3356 44.7455V48.0502H63.8367V44.7455L66.3734 44.2567C66.7147 44.1947 66.9785 44.055 67.1647 43.8378C67.3509 43.6051 67.444 43.3103 67.444 42.9535V27.64C67.444 27.2987 67.3586 27.0039 67.188 26.7556C67.0173 26.5074 66.7613 26.3522 66.42 26.2902L63.5807 25.7084V22.264C65.2098 21.8296 66.9242 21.5038 68.724 21.2865C70.5237 21.0538 72.2071 20.9297 73.7741 20.9142L74.9378 21.9615L75.4032 24.4051C76.4272 23.257 77.6452 22.4036 79.057 21.8451C80.4844 21.2865 82.0515 21.0073 83.7581 21.0073C85.6044 21.0073 87.0861 21.3176 88.2032 21.9382C89.3358 22.5588 90.1892 23.4587 90.7632 24.6378C91.8958 23.3966 93.2301 22.4812 94.7661 21.8916C96.3021 21.3021 97.9623 21.0073 99.7465 21.0073C101.314 21.0073 102.625 21.24 103.68 21.7055C104.735 22.1554 105.565 22.8148 106.17 23.6836C106.79 24.5525 107.225 25.6308 107.473 26.9185C107.737 28.1908 107.869 29.6337 107.869 31.2473V42.9535C107.869 43.3103 107.962 43.6051 108.148 43.8378C108.334 44.055 108.598 44.1947 108.939 44.2567L111.499 44.7455V48.0502H96.977V44.7455L98.42 44.28C98.7768 44.1559 99.0406 43.993 99.2112 43.7913C99.3819 43.5896 99.4672 43.3103 99.4672 42.9535V32.1549C99.4672 29.9518 99.1414 28.3692 98.4898 27.4073C97.8536 26.4453 96.8297 25.9644 95.4178 25.9644C94.8282 25.9644 94.1998 26.0575 93.5327 26.2436C92.8655 26.4143 92.1984 26.6936 91.5312 27.0815C91.6398 27.6555 91.7174 28.2761 91.764 28.9433C91.826 29.5949 91.857 30.2853 91.857 31.0145V42.9535C91.857 43.3103 91.9424 43.5896 92.113 43.7913C92.2837 43.9775 92.5397 44.1404 92.881 44.28L94.3705 44.7455V48.0502H80.9654V44.7455L82.4083 44.28C82.7496 44.1559 83.0056 43.993 83.1763 43.7913C83.3625 43.5896 83.4556 43.3103 83.4556 42.9535V31.9455C83.4556 29.7733 83.1453 28.2373 82.5247 27.3375C81.9196 26.4221 80.9189 25.9644 79.5225 25.9644C78.9484 25.9644 78.3356 26.0497 77.684 26.2204C77.0478 26.3755 76.435 26.6238 75.8454 26.9651V42.9535C75.8454 43.3103 75.923 43.5896 76.0781 43.7913C76.2333 43.993 76.4738 44.1481 76.7996 44.2567L78.3356 44.7455Z" fill="black"/>
<path d="M125.333 45.3273C126.155 45.3273 126.908 45.1566 127.59 44.8153C128.273 44.4584 128.847 43.8766 129.313 43.0698C129.794 42.263 130.166 41.1847 130.43 39.8349C130.709 38.4851 130.856 36.8172 130.872 34.8313C130.887 31.5886 130.5 29.2768 129.708 27.896C128.917 26.4996 127.699 25.8015 126.055 25.8015C125.387 25.8015 124.759 25.879 124.169 26.0342C123.58 26.1893 123.068 26.391 122.633 26.6393V44.8153C123.037 45.017 123.471 45.1566 123.937 45.2342C124.402 45.2962 124.868 45.3273 125.333 45.3273ZM127.358 56.2887V59.5935H110.625V56.2887L113.161 55.8C113.503 55.7379 113.767 55.5905 113.953 55.3578C114.139 55.1406 114.232 54.8536 114.232 54.4967V27.64C114.232 27.2987 114.147 27.0039 113.976 26.7556C113.821 26.5074 113.58 26.3522 113.255 26.2902L110.369 25.6851V22.264C111.129 22.0778 111.943 21.8994 112.812 21.7287C113.681 21.5581 114.558 21.4184 115.442 21.3098C116.342 21.1857 117.226 21.0926 118.095 21.0305C118.98 20.953 119.802 20.9142 120.562 20.9142L121.726 21.9615L122.191 24.2422C123.107 23.2337 124.193 22.4192 125.449 21.7985C126.706 21.1779 128.165 20.8676 129.825 20.8676C131.221 20.8676 132.524 21.1236 133.735 21.6356C134.96 22.1321 136.007 22.9001 136.876 23.9396C137.761 24.9636 138.451 26.2747 138.948 27.8727C139.46 29.4708 139.716 31.3559 139.716 33.528C139.716 35.9639 139.374 38.1282 138.692 40.0211C138.024 41.8984 137.062 43.4732 135.806 44.7455C134.565 46.0022 133.052 46.9564 131.268 47.608C129.499 48.2596 127.528 48.5855 125.356 48.5855C124.937 48.5855 124.495 48.5622 124.03 48.5156C123.58 48.4846 123.114 48.4303 122.633 48.3527V54.4967C122.633 54.8691 122.727 55.1639 122.913 55.3811C123.114 55.6138 123.394 55.7535 123.751 55.8L127.358 56.2887Z" fill="black"/>
<path d="M151.234 43.9542C151.932 43.9542 152.591 43.8533 153.212 43.6516C153.848 43.4499 154.43 43.1629 154.958 42.7905V37.0422L152.398 37.2051C150.893 37.2827 149.869 37.6938 149.326 38.4385C148.783 39.1833 148.511 40.0521 148.511 41.0451C148.511 42.0225 148.72 42.7518 149.139 43.2327C149.558 43.7137 150.256 43.9542 151.234 43.9542ZM161.078 48.4924C159.744 48.4924 158.604 48.2674 157.657 47.8175C156.711 47.352 155.989 46.5375 155.493 45.3738C154.593 46.3978 153.468 47.1891 152.118 47.7476C150.784 48.3062 149.295 48.5855 147.65 48.5855C145.292 48.5855 143.407 47.9881 141.995 46.7935C140.598 45.5833 139.9 44.0007 139.9 42.0458C139.9 40.8046 140.179 39.7108 140.738 38.7644C141.312 37.8179 142.072 37.0267 143.019 36.3905C143.965 35.7389 145.059 35.2347 146.3 34.8778C147.557 34.521 148.86 34.3038 150.21 34.2262L154.958 33.9702V31.3636C154.958 29.4708 154.523 28.1598 153.654 27.4305C152.785 26.7013 151.536 26.3367 149.907 26.3367C148.495 26.3367 147.177 26.5695 145.951 27.0349C144.741 27.4848 143.624 28.1675 142.6 29.0829L140.691 27.4305C141.452 25.4291 142.809 23.8465 144.764 22.6829C146.719 21.5038 149.263 20.9142 152.398 20.9142C156.152 20.9142 158.875 21.7908 160.566 23.544C162.257 25.2817 163.103 27.8417 163.103 31.224V42.744C163.103 43.225 163.204 43.5741 163.406 43.7913C163.607 43.993 163.902 44.1171 164.29 44.1636L166.594 44.4429V47.5847C165.973 47.7554 165.128 47.9493 164.057 48.1665C163.002 48.3838 162.009 48.4924 161.078 48.4924Z" fill="black"/>
<path d="M180.789 44.7455V48.0502H166.174V44.7455L168.711 44.2567C169.052 44.1947 169.316 44.055 169.502 43.8378C169.688 43.6051 169.781 43.3103 169.781 42.9535V27.6167C169.781 27.2754 169.696 26.9806 169.525 26.7324C169.355 26.4841 169.099 26.329 168.757 26.2669L165.918 25.6851V22.264C167.547 21.8296 169.262 21.5038 171.061 21.2865C172.861 21.0538 174.545 20.9297 176.112 20.9142L177.275 21.9615L177.764 24.4982C178.866 23.3345 180.146 22.4657 181.604 21.8916C183.062 21.3021 184.668 21.0073 186.421 21.0073C189.54 21.0073 191.673 21.8839 192.821 23.6371C193.97 25.3748 194.544 27.8339 194.544 31.0145V42.9535C194.544 43.3103 194.637 43.6051 194.823 43.8378C195.009 44.055 195.273 44.1947 195.614 44.2567L198.151 44.7222V48.0502H183.536V44.7455L185.095 44.28C185.436 44.1559 185.692 43.993 185.863 43.7913C186.049 43.5896 186.142 43.3103 186.142 42.9535V31.9455C186.142 29.7733 185.824 28.2373 185.188 27.3375C184.552 26.4221 183.543 25.9644 182.163 25.9644C181.526 25.9644 180.867 26.0575 180.184 26.2436C179.502 26.4298 178.835 26.7091 178.183 27.0815V42.9535C178.183 43.3103 178.268 43.5973 178.439 43.8145C178.625 44.0162 178.881 44.1714 179.207 44.28L180.789 44.7455Z" fill="black"/>
<path d="M202.551 60.1055C201.48 60.1055 200.371 60.0356 199.223 59.896C198.09 59.7719 197.059 59.6245 196.128 59.4538V55.5207C197.912 55.2415 199.51 54.9389 200.922 54.6131C202.349 54.3028 203.622 53.8839 204.739 53.3564C205.871 52.8288 206.88 52.1384 207.764 51.2851C208.648 50.4473 209.447 49.369 210.161 48.0502H206.763L198.478 26.6393C198.354 26.2979 198.176 26.0342 197.943 25.848C197.726 25.6618 197.447 25.5144 197.105 25.4058L195.336 24.8473V21.5658L210.836 21.5891V24.9404L207.392 25.6851L212.721 41.3476L217.725 25.6618L214.42 24.9171V21.5658H225.009V24.8473L223.24 25.4058C222.868 25.5144 222.581 25.6618 222.379 25.848C222.178 26.0187 222.015 26.2824 221.891 26.6393L214.187 48.4691C212.807 52.3634 211.201 55.2725 209.37 57.1964C207.555 59.1358 205.282 60.1055 202.551 60.1055Z" fill="black"/>
<path fill-rule="evenodd" clip-rule="evenodd" d="M37.4822 28.4545C36.784 30.2698 36.4349 32.473 36.4349 35.064C36.4349 39.6875 37.5908 43.1086 39.9026 45.3273C42.2298 47.5459 45.4182 48.6553 49.4677 48.6553C51.4226 48.6553 53.2378 48.407 54.9135 47.9105C56.6046 47.4141 58.0631 46.615 59.2888 45.5134C60.5145 44.3964 61.4764 42.9302 62.1746 41.1149C62.8883 39.2996 63.2451 37.0887 63.2451 34.4822C63.2451 29.8431 62.0892 26.4143 59.7775 24.1956C57.4657 21.977 54.2774 20.8676 50.2124 20.8676C48.273 20.8676 46.4577 21.1236 44.7666 21.6356C43.0754 22.1321 41.617 22.9389 40.3913 24.056C39.1656 25.1731 38.1959 26.6393 37.4822 28.4545ZM53.6427 36.9132C55.2885 33.3838 56.1674 30.7464 56.2794 29.0011C56.4054 27.2624 55.695 26.0324 54.1483 25.3111C52.8687 24.7144 51.594 24.9332 50.3242 25.9674C49.0751 26.9942 47.6539 29.216 46.0605 32.6329C44.4147 36.1624 43.5288 38.7964 43.4028 40.5352C43.2908 42.2805 44.0082 43.5138 45.555 44.235C46.8346 44.8317 48.1022 44.6097 49.3579 43.5689C50.6277 42.5347 52.0559 40.3161 53.6427 36.9132Z" fill="black"/>
</svg>
